<svg height="384pt" viewBox="0 0 384.00532 384" width="384pt" xmlns="http://www.w3.org/2000/svg"><path d="m327.964844 56.609375c-36.488282-36.503906-85.0625-56.60546875-136.765625-56.60546875-29.914063 0-59.601563 6.94140575-85.195313 19.78124975-1.421875.640625-2.863281 1.425782-4.144531 2.226563-7.277344 4.621093-9.589844 14.183593-5.214844 21.621093 9.328125 15.875 14.265625 33.976563 14.265625 52.371094 0 53.871094-42.242187 99.40625-96.167968 103.648438-4.394532.351562-8.464844 2.503906-11.226563 5.949218-2.765625 3.449219-3.972656 7.882813-3.359375 12.257813.457031 3.128906.914062 6.261719 1.480469 8.941406 16.703125 91.089844 96.425781 157.203125 189.5625 157.203125 30.832031 0 61.40625-7.402344 88.398437-21.378906 31.527344-16.199219 57.953125-40.726562 76.441406-70.941406 18.292969-30.039063 27.964844-64.511719 27.964844-99.679688 0-15.082031-1.742187-29.984375-5.167968-44.21875-8.070313-34.375-25.664063-65.894531-50.871094-91.175781zm.761718 218.402344c-15.402343 25.175781-37.449218 45.640625-63.800781 59.175781-22.824219 11.824219-47.632812 17.816406-73.726562 17.816406-74.832031 0-139.265625-51.105468-156.410157-122.992187 61.878907-13.160157 108.121094-68.503907 108.121094-133.007813 0-18.203125-3.6875-36.203125-10.777344-52.875 18.617188-7.390625 38.417969-11.125 59.066407-11.125 43.148437 0 83.6875 16.773438 114.125 47.214844 21 21.054688 35.648437 47.296875 42.386719 75.953125 2.847656 11.878906 4.292968 24.269531 4.292968 36.832031 0 29.292969-8.054687 58.015625-23.277344 83.007813zm0 0"/><path d="m200.003906 104.003906c-8.832031 0-16 7.167969-16 16v8c0 8.832032 7.167969 16 16 16 8.832032 0 16-7.167968 16-16v-8c0-8.832031-7.167968-16-16-16zm0 0"/><path d="m240.003906 256.003906c-8.832031 0-16 7.167969-16 16v8c0 8.832032 7.167969 16 16 16 8.832032 0 16-7.167968 16-16v-8c0-8.832031-7.167968-16-16-16zm0 0"/><path d="m296.003906 192.003906h-8c-8.832031 0-16 7.167969-16 16 0 8.832032 7.167969 16 16 16h8c8.832032 0 16-7.167968 16-16 0-8.832031-7.167968-16-16-16zm0 0"/><path d="m135.515625 261.859375-5.65625 5.65625c-6.246094 6.246094-6.246094 16.375 0 22.621094 3.128906 3.128906 7.21875 4.691406 11.3125 4.691406 4.097656 0 8.183594-1.5625 11.3125-4.691406l5.65625-5.652344c6.25-6.25 6.25-16.378906 0-22.625-6.246094-6.25-16.367187-6.25-22.625 0zm0 0"/><path d="m288.003906 141.660156c4.097656 0 8.183594-1.5625 11.3125-4.691406 6.25-6.246094 6.25-16.375 0-22.621094l-5.65625-5.65625c-6.246094-6.25-16.375-6.25-22.621094 0-6.25 6.246094-6.25 16.375 0 22.625l5.652344 5.652344c3.128906 3.128906 7.21875 4.691406 11.3125 4.691406zm0 0"/><path d="m197.660156 191.035156c-6.246094-6.25-16.375-6.25-22.621094 0-6.25 6.246094-6.25 16.375 0 22.625l5.652344 5.65625c3.128906 3.125 7.21875 4.6875 11.3125 4.6875 4.097656 0 8.183594-1.5625 11.3125-4.6875 6.25-6.25 6.25-16.378906 0-22.625zm0 0"/></svg>